<svg id="Layer_1" data-name="Layer 1" xmlns="http://www.w3.org/2000/svg" viewBox="0 0 512 512"><path d="M95.166,271.64a6,6,0,0,0,6-6v-4.661a6,6,0,0,0-12,0v4.661A6,6,0,0,0,95.166,271.64Z"/><path d="M89.166,344.185a6,6,0,0,0,12,0v-53.9a6,6,0,0,0-12,0Z"/><path d="M124.087,209a6,6,0,0,0-6,6V359.346A142.654,142.654,0,0,0,260.741,502H280.18A142.655,142.655,0,0,0,422.834,359.346V152.654A142.654,142.654,0,0,0,280.18,10H260.74A142.653,142.653,0,0,0,118.087,152.653V165a6,6,0,1,0,12,0V152.654A130.654,130.654,0,0,1,260.741,22H280.18A130.654,130.654,0,0,1,410.834,152.654V359.346A130.654,130.654,0,0,1,280.18,490H260.74A130.653,130.653,0,0,1,130.087,359.347V215A6,6,0,0,0,124.087,209Z"/><path d="M175.933,235.751a6,6,0,0,0-6,6v71.2a6,6,0,0,0,6,6h71.34v16.236H219.832a41.512,41.512,0,0,0-35.795,20.236,40.781,40.781,0,0,0-1.266,40.373,112.268,112.268,0,0,0,86.579,59.321c.128.015.255.026.383.031l3.117.124a26.255,26.255,0,1,0,.007-52.509H264.8v-21.29l100.278-1.487a6,6,0,0,0,5.911-6v-84.36a6,6,0,0,0-6-6H303.1V255.117h61.887a6,6,0,0,0,6-6V161.955a6,6,0,0,0-6-6h-84.8V123.761h31.5a33.518,33.518,0,0,0,.006-67.036h-.257l-48.121.362a94.092,94.092,0,0,0-93.384,94.089,46.294,46.294,0,0,0,46.242,46.241h31.1v38.333Zm77.34-50.333h-37.1a34.28,34.28,0,0,1-34.242-34.241,82.312,82.312,0,0,1,81.474-82.089l48.12-.362a21.517,21.517,0,0,1,21.68,21.517,21.542,21.542,0,0,1-21.518,21.518h-37.5a6,6,0,0,0-6,6v44.194a6,6,0,0,0,6,6h84.8v75.162H297.1a6,6,0,0,0-6,6v40.512a6,6,0,0,0,6,6h61.887v72.448l-100.278,1.486a6,6,0,0,0-5.911,6v33.2a6,6,0,0,0,6,6h14.059a14.255,14.255,0,1,1-.715,28.492l-1.611-.081a100.275,100.275,0,0,1-77.14-52.965,28.873,28.873,0,0,1,.919-28.583,29.6,29.6,0,0,1,25.522-14.439h33.441a6,6,0,0,0,6-6V312.953a6,6,0,0,0-6-6h-71.34v-59.2h71.34a6,6,0,0,0,6-6V191.418A6,6,0,0,0,253.273,185.418Z"/></svg>