<?xml version="1.0" encoding="utf-8"?>
<!-- Generator: Adobe Illustrator 24.3.0, SVG Export Plug-In . SVG Version: 6.00 Build 0)  -->
<svg version="1.1" id="Layer_1" xmlns="http://www.w3.org/2000/svg" xmlns:xlink="http://www.w3.org/1999/xlink" x="0px" y="0px"
	 viewBox="0 0 64 64" enable-background="new 0 0 64 64" xml:space="preserve">
<path d="M32,27.6c-0.2,0.1-0.4,0.2-0.6,0.4H32v2h-2.4c-0.4,0.8-0.6,1.6-0.6,2.5c0,0.5,0.1,1,0.2,1.5H33v2h-2.7c0.5,0.6,1,1,1.7,1.4
	c1.7-0.9,2.8-2.5,3-4.4h-4v-2h3.8C34.4,29.6,33.4,28.3,32,27.6z"/>
<path d="M51,26.5l-1.2-1.2c-3.6-3.6-8-5.9-12.8-6.9c2.4-1.6,4-4.4,4-7.5c0-5-4-9-9.1-9c-5,0-9,4-9,9c0,3.1,1.6,5.9,4,7.5
	c-4.8,1-9.2,3.3-12.8,6.9L13,26.5c-1.4,1.4-1.4,3.6,0,4.9l0.5,0.5c1.3,1.3,3.6,1.3,4.9,0c0.4-0.4,1-0.6,1.6-0.3
	c0.6,0.2,0.9,0.8,0.9,1.4v25.5c0,1.9,1.6,3.5,3.5,3.5h1c1.9,0,3.5-1.6,3.5-3.5v-11c0-0.8,0.7-1.5,1.5-1.5h3.1c0.8,0,1.5,0.7,1.5,1.5
	v11c0,1.9,1.6,3.5,3.5,3.5h1c1.9,0,3.5-1.6,3.5-3.5V33c0-0.6,0.3-1.1,0.9-1.4c0.6-0.2,1.2-0.1,1.6,0.3c1.3,1.3,3.6,1.3,4.9,0
	l0.5-0.5C52.3,30.1,52.3,27.9,51,26.5z M37,32.5c0,2.3-1.1,4.4-2.8,5.8C35.9,39.2,37,41,37,43h-2c0-1.4-0.9-2.6-2.2-3.1L32,39.6
	l-0.8,0.3c-0.6,0.2-1.1,0.6-1.5,1.1H32v2h-5c0-2,1.1-3.8,2.8-4.7c-1.7-1.4-2.8-3.5-2.8-5.8s1.1-4.4,2.8-5.8C28.1,25.8,27,24,27,22h2
	c0,1.4,0.9,2.6,2.2,3.1l0.8,0.3l0.8-0.3c0.6-0.2,1.1-0.6,1.5-1.1H31v-2h6c0,2-1.1,3.8-2.8,4.7C35.9,28.1,37,30.2,37,32.5z"/>
</svg>
