<svg viewBox="-3.2 -3.2 38.40 38.40" 
xmlns="http://www.w3.org/2000/svg" 
fill="#000000" transform="rotate(0)">
<g id="SVGRepo_bgCarrier" stroke-width="0">
</g><g id="SVGRepo_tracerCarrier" stroke-linecap="round" stroke-linejoin="round" stroke="#CCCCCC" stroke-width="0.064"></g><g id="SVGRepo_iconCarrier"> <defs> 
<style>.cls-1{fill:#ff8000;}.cls-2{fill:#ff9933;}</style>
 </defs> <g data-name="14. Laptop" id="_14._Laptop"> 
 <rect class="cls-1" height="4" rx="1" width="8" x="12" y="24"></rect>
  <path class="cls-2" d="M31,24V7a3,3,0,0,0-3-3H27a1,1,0,0,0,0,2h1a1,1,0,0,1,1,1V24H3V7A1,1,0,0,1,4,6H5A1,1,0,0,0,5,4H4A3,3,0,0,0,1,7V24a1,1,0,0,0-1,1v2a5,5,0,0,0,5,5H27a5,5,0,0,0,5-5V25A1,1,0,0,0,31,24Zm-1,3a3,3,0,0,1-3,3H5a3,3,0,0,1-3-3V26H30Z"></path>
   <path class="cls-2" d="M16,16a8,8,0,1,1,8-8A8,8,0,0,1,16,16ZM16,2a6,6,0,1,0,6,6A6,6,0,0,0,16,2Z"></path>
    <path class="cls-1" d="M18,7H17V6a1,1,0,0,0-2,0V7H14a1,1,0,0,0,0,2h1v1a1,1,0,0,0,2,0V9h1a1,1,0,0,0,0-2Z"></path>
     </g> </g></svg>